<svg xmlns="http://www.w3.org/2000/svg" width="256" height="256" viewBox="0 0 100 100"><path fill="#7a6fc5" d="M33.67 83.31L33.63 40.16Q33.63 37.87 34.31 35.87Q34.99 33.87 36.16 32.36Q37.32 30.84 38.86 29.96Q40.40 29.08 42.16 29.08L42.16 29.08L44.13 29.08L44.13 75.80L64.48 75.80L64.48 24.12L25.10 24.12Q25.24 22.58 25.92 21.22Q26.60 19.85 27.63 18.84Q28.66 17.83 29.98 17.26Q31.30 16.69 32.80 16.69L32.80 16.69L66.55 16.69Q68.26 16.69 69.80 17.55Q71.34 18.40 72.46 19.92Q73.58 21.44 74.24 23.48Q74.90 25.52 74.90 27.85L74.90 27.85L74.90 72.24Q74.90 74.52 74.24 76.54Q73.58 78.56 72.46 80.06Q71.34 81.55 69.82 82.43Q68.30 83.31 66.59 83.31L66.59 83.31L33.67 83.31Z"></path></svg>